<svg xmlns="http://www.w3.org/2000/svg" viewBox="0 0 100 100">
  <!-- Dark navy rounded background -->
  <rect width="100" height="100" rx="20" fill="#1a237e"/>

  <!-- Outer flame — amber/orange -->
  <path d="
    M 50,83
    C 37,83 26,73 26,60
    C 26,48 31,39 37,32
    C 38,41 42,46 46,47
    C 43,38 44,26 50,13
    C 56,26 57,38 54,47
    C 58,46 62,41 63,32
    C 69,39 74,48 74,60
    C 74,73 63,83 50,83 Z
  " fill="#FF8F00"/>

  <!-- Middle flame — red-orange -->
  <path d="
    M 50,78
    C 41,78 34,71 34,62
    C 34,54 38,48 42,44
    C 43,50 46,53 49,53
    C 47,47 48,39 50,31
    C 52,39 53,47 51,53
    C 54,53 57,50 58,44
    C 62,48 66,54 66,62
    C 66,71 59,78 50,78 Z
  " fill="#F4511E"/>

  <!-- Inner core — yellow -->
  <path d="
    M 50,73
    C 45,73 41,68 41,63
    C 41,58 44,54 47,52
    C 47,56 49,59 50,59
    C 51,59 53,56 53,52
    C 56,54 59,58 59,63
    C 59,68 55,73 50,73 Z
  " fill="#FFD740"/>
</svg>
